<svg width="24" height="24" viewBox="0 0 24 24" fill="none" xmlns="http://www.w3.org/2000/svg">
<g id="Component 14">
<path id="Vector (Stroke)" fill-rule="evenodd" clip-rule="evenodd" d="M13.3483 7.18521C12.2834 6.88703 11.1498 6.95026 10.1247 7.36499C9.09967 7.77972 8.241 8.52256 7.68308 9.47728C7.12516 10.432 6.89947 11.5447 7.04132 12.6414C7.18317 13.738 7.68455 14.7567 8.46703 15.5381C9.2495 16.3194 10.2689 16.8193 11.3658 16.9596C12.4626 17.0999 13.575 16.8726 14.529 16.3133C15.4829 15.754 16.2245 14.8942 16.6377 13.8686C17.051 12.8429 17.1126 11.7092 16.8128 10.6448C16.738 10.379 16.8928 10.1028 17.1586 10.028C17.4244 9.95315 17.7006 10.1079 17.7754 10.3738C18.1351 11.651 18.0612 13.0115 17.5653 14.2423C17.0694 15.4731 16.1794 16.5048 15.0347 17.1759C13.89 17.8471 12.5552 18.1199 11.2389 17.9515C9.9227 17.7832 8.6994 17.1833 7.76043 16.2457C6.82146 15.3081 6.2198 14.0857 6.04958 12.7697C5.87936 11.4537 6.15019 10.1184 6.81969 8.97273C7.4892 7.82707 8.5196 6.93566 9.74968 6.43798C10.9798 5.94031 12.3401 5.86444 13.6179 6.22226C13.8838 6.29672 14.039 6.57265 13.9646 6.83856C13.8901 7.10447 13.6142 7.25968 13.3483 7.18521ZM16 6C16.2762 6 16.5 6.22386 16.5 6.5V7.5H17.5C17.7762 7.5 18 7.72386 18 8C18 8.27614 17.7762 8.5 17.5 8.5H16.5V9.5C16.5 9.77614 16.2762 10 16 10C15.7239 10 15.5 9.77614 15.5 9.5V8.5H14.5C14.2239 8.5 14 8.27614 14 8C14 7.72386 14.2239 7.5 14.5 7.5H15.5V6.5C15.5 6.22386 15.7239 6 16 6ZM12 8C12.2761 8 12.5 8.22386 12.5 8.5L12.5 11.7929L14 13.2929C14.1953 13.4882 14.1953 13.8047 14 14C13.8047 14.1953 13.4882 14.1953 13.2929 14L11.6465 12.3536C11.5527 12.2598 11.5 12.1326 11.5 12L11.5 8.5C11.5 8.22386 11.7239 8 12 8Z" fill="#0066FF"/>
</g>
</svg>
