<svg width="24" height="24" viewBox="0 0 24 24" fill="none" xmlns="http://www.w3.org/2000/svg">
<g id="Component 13">
<path id="Vector 77 (Stroke)" fill-rule="evenodd" clip-rule="evenodd" d="M10.8763 8.17075C11.0581 8.37857 11.0371 8.69445 10.8293 8.8763L7.2593 12L10.8293 15.1237C11.0371 15.3056 11.0581 15.6214 10.8763 15.8293C10.6944 16.0371 10.3786 16.0581 10.1707 15.8763L6.17075 12.3763C6.06224 12.2814 6 12.1442 6 12C6 11.8558 6.06224 11.7187 6.17075 11.6237L10.1707 8.12372C10.3786 7.94188 10.6944 7.96294 10.8763 8.17075ZM13.1237 8.17075C13.3056 7.96294 13.6214 7.94188 13.8293 8.12372L17.8293 11.6237C17.9378 11.7187 18 11.8558 18 12C18 12.1442 17.9378 12.2814 17.8293 12.3763L13.8293 15.8763C13.6214 16.0581 13.3056 16.0371 13.1237 15.8293C12.9419 15.6214 12.9629 15.3056 13.1707 15.1237L16.7407 12L13.1707 8.8763C12.9629 8.69445 12.9419 8.37857 13.1237 8.17075Z" fill="#8F97A3"/>
</g>
</svg>
