<svg width="20" height="20" viewBox="0 0 20 20" fill="none" xmlns="http://www.w3.org/2000/svg">
<path fill-rule="evenodd" clip-rule="evenodd" d="M5.41536 5.00002C4.72501 5.00002 4.16536 5.55966 4.16536 6.25002V10.4167C4.16536 11.107 4.72501 11.6667 5.41536 11.6667H7.08203C7.31215 11.6667 7.4987 11.8532 7.4987 12.0834V14.5498L10.9884 11.758C11.0623 11.6989 11.1541 11.6667 11.2487 11.6667H14.582C15.2724 11.6667 15.832 11.107 15.832 10.4167V6.25002C15.832 5.55966 15.2724 5.00002 14.582 5.00002H5.41536ZM3.33203 6.25002C3.33203 5.09943 4.26477 4.16669 5.41536 4.16669H14.582C15.7326 4.16669 16.6654 5.09943 16.6654 6.25002V10.4167C16.6654 11.5673 15.7326 12.5 14.582 12.5H11.3949L7.34232 15.7421C7.21725 15.8421 7.0459 15.8616 6.90154 15.7922C6.75717 15.7228 6.66536 15.5769 6.66536 15.4167V12.5H5.41536C4.26477 12.5 3.33203 11.5673 3.33203 10.4167V6.25002ZM6.2487 8.75002C6.2487 8.28978 6.62179 7.91669 7.08203 7.91669C7.54227 7.91669 7.91536 8.28978 7.91536 8.75002C7.91536 9.21026 7.54227 9.58335 7.08203 9.58335C6.62179 9.58335 6.2487 9.21026 6.2487 8.75002ZM9.16536 8.75002C9.16536 8.28978 9.53846 7.91669 9.9987 7.91669C10.4589 7.91669 10.832 8.28978 10.832 8.75002C10.832 9.21026 10.4589 9.58335 9.9987 9.58335C9.53846 9.58335 9.16536 9.21026 9.16536 8.75002ZM12.082 8.75002C12.082 8.28978 12.4551 7.91669 12.9154 7.91669C13.3756 7.91669 13.7487 8.28978 13.7487 8.75002C13.7487 9.21026 13.3756 9.58335 12.9154 9.58335C12.4551 9.58335 12.082 9.21026 12.082 8.75002Z" fill="#8F97A3"/>
</svg>
