<svg width="20" height="20" viewBox="0 0 20 20" fill="none" xmlns="http://www.w3.org/2000/svg">
<path fill-rule="evenodd" clip-rule="evenodd" d="M5 5.41668C5 4.26608 5.93274 3.33334 7.08333 3.33334H12.9167C14.0673 3.33334 15 4.26608 15 5.41668V14.5833C15 15.7339 14.0673 16.6667 12.9167 16.6667H7.08333C5.93274 16.6667 5 15.7339 5 14.5833V5.41668ZM7.08333 4.16668C6.39298 4.16668 5.83333 4.72632 5.83333 5.41668V14.5833C5.83333 15.2737 6.39298 15.8333 7.08333 15.8333H12.9167C13.607 15.8333 14.1667 15.2737 14.1667 14.5833V5.41668C14.1667 4.72632 13.607 4.16668 12.9167 4.16668H7.08333ZM10.8333 7.91668C10.8333 7.68656 11.0199 7.50001 11.25 7.50001H12.9167C13.1468 7.50001 13.3333 7.68656 13.3333 7.91668V9.58334C13.3333 9.81346 13.1468 10 12.9167 10C12.6865 10 12.5 9.81346 12.5 9.58334V9.04303L10.733 11.1045C10.6556 11.1948 10.5433 11.2478 10.4243 11.2499C10.3054 11.2521 10.1912 11.2034 10.1105 11.116L9.18925 10.1179L7.4087 12.3436C7.26494 12.5233 7.00274 12.5525 6.82304 12.4087C6.64335 12.265 6.61422 12.0027 6.75797 11.8231L8.8413 9.21889C8.91716 9.12407 9.0306 9.06706 9.15195 9.06277C9.27329 9.05848 9.39048 9.10734 9.47283 9.19656L10.4051 10.2066L12.0107 8.33334H11.25C11.0199 8.33334 10.8333 8.1468 10.8333 7.91668Z" fill="#8F97A3"/>
</svg>
