<svg width="24" height="24" viewBox="0 0 24 24" fill="none" xmlns="http://www.w3.org/2000/svg">
<path fill="currentColor" fill-rule="evenodd" clip-rule="evenodd" d="M4 5.5C4 5.22386 4.22386 5 4.5 5H19.5C19.7761 5 20 5.22386 20 5.5C20 5.77614 19.7761 6 19.5 6H4.5C4.22386 6 4 5.77614 4 5.5ZM15.6464 8.14645C15.8417 7.95118 16.1583 7.95118 16.3536 8.14645L19.8536 11.6464C20.0488 11.8417 20.0488 12.1583 19.8536 12.3536L16.3536 15.8536C16.1583 16.0488 15.8417 16.0488 15.6464 15.8536C15.4512 15.6583 15.4512 15.3417 15.6464 15.1464L18.7929 12L15.6464 8.85355C15.4512 8.65829 15.4512 8.34171 15.6464 8.14645ZM4 12C4 11.7239 4.22386 11.5 4.5 11.5H15.5C15.7761 11.5 16 11.7239 16 12C16 12.2761 15.7761 12.5 15.5 12.5H4.5C4.22386 12.5 4 12.2761 4 12ZM4 18.5C4 18.2239 4.22386 18 4.5 18H19.5C19.7761 18 20 18.2239 20 18.5C20 18.7761 19.7761 19 19.5 19H4.5C4.22386 19 4 18.7761 4 18.5Z"/>
</svg>
