<svg width="24" height="24" viewBox="0 0 24 24" fill="none" xmlns="http://www.w3.org/2000/svg">
<path fill-rule="evenodd" clip-rule="evenodd" d="M10.2747 8.66384C10.1172 8.85288 10 9.11387 10 9.5C10 9.77614 9.77614 10 9.5 10C9.22386 10 9 9.77614 9 9.5C9 8.88613 9.1953 8.39712 9.50651 8.02366C9.81035 7.65905 10.2025 7.43049 10.5643 7.28576C10.9272 7.1406 11.2831 7.07033 11.5433 7.03564C11.6747 7.01811 11.785 7.00924 11.8641 7.00472C11.9036 7.00246 11.9356 7.00128 11.9586 7.00067L11.9864 7.0001L11.995 7.00002L11.998 7L11.9991 7L11.995 7.00002L12.0004 7L12.002 7L12.005 7.00002L12.0136 7.0001L12.0414 7.00067C12.0644 7.00128 12.0964 7.00246 12.1359 7.00472C12.215 7.00924 12.3253 7.01811 12.4567 7.03564C12.7169 7.07033 13.0728 7.1406 13.4357 7.28576C13.7975 7.43049 14.1896 7.65905 14.4935 8.02366C14.8047 8.39712 15 8.88613 15 9.5C15 10.2054 14.7423 10.7403 14.3581 11.1245C13.9868 11.4959 13.5221 11.7031 13.128 11.8214C12.733 11.9399 12.5 12.24 12.5 12.5V13.5C12.5 13.7761 12.2761 14 12 14C11.7239 14 11.5 13.7761 11.5 13.5V12.5C11.5 11.6555 12.1776 11.0625 12.8406 10.8636C13.1461 10.7719 13.4392 10.6292 13.6509 10.4175C13.8497 10.2187 14 9.93725 14 9.5C14 9.11387 13.8828 8.85288 13.7253 8.66384C13.5604 8.46595 13.3275 8.31951 13.0643 8.21424C12.8022 8.1094 12.5331 8.05467 12.3245 8.02686C12.2216 8.01314 12.1366 8.00639 12.0789 8.00309C12.0501 8.00145 12.0283 8.00067 12.0147 8.00031L12.0007 8.00002L11.9996 8L11.9853 8.00031C11.9717 8.00067 11.9499 8.00145 11.9211 8.00309C11.8634 8.00639 11.7784 8.01314 11.6755 8.02686C11.4669 8.05467 11.1978 8.1094 10.9357 8.21424C10.6725 8.31951 10.4396 8.46595 10.2747 8.66384Z" fill="#8F97A3"/>
<path d="M13 16C13 16.5523 12.5523 17 12 17C11.4477 17 11 16.5523 11 16C11 15.4477 11.4477 15 12 15C12.5523 15 13 15.4477 13 16Z" fill="#8F97A3"/>
<path fill-rule="evenodd" clip-rule="evenodd" d="M4 12C4 7.58172 7.58172 4 12 4C16.4183 4 20 7.58172 20 12V19.5C20 19.7761 19.7761 20 19.5 20H12C7.58172 20 4 16.4183 4 12ZM12 5C8.13401 5 5 8.13401 5 12C5 15.866 8.13401 19 12 19H19V12C19 8.13401 15.866 5 12 5Z" fill="#8F97A3"/>
</svg>
