<svg width="20" height="20" viewBox="0 0 20 20" fill="none" xmlns="http://www.w3.org/2000/svg">
<path fill-rule="evenodd" clip-rule="evenodd" d="M9.9987 4.16666C8.8481 4.16666 7.91536 5.0994 7.91536 6.24999C7.91536 7.40059 8.8481 8.33333 9.9987 8.33333C11.1493 8.33333 12.082 7.40059 12.082 6.24999C12.082 5.0994 11.1493 4.16666 9.9987 4.16666ZM7.08203 6.24999C7.08203 4.63916 8.38787 3.33333 9.9987 3.33333C11.6095 3.33333 12.9154 4.63916 12.9154 6.24999C12.9154 7.86083 11.6095 9.16666 9.9987 9.16666C8.38787 9.16666 7.08203 7.86083 7.08203 6.24999ZM7.22299 11.0195C7.10301 11.1223 7.08203 11.198 7.08203 11.25C7.08203 11.5947 7.16769 11.8438 7.24638 12.0012C7.26176 12.0319 7.27694 12.0593 7.29128 12.0833H12.7061C12.7205 12.0593 12.7356 12.0319 12.751 12.0012C12.8297 11.8438 12.9154 11.5947 12.9154 11.25C12.9154 11.198 12.8944 11.1223 12.7744 11.0195C12.6489 10.9119 12.4445 10.8031 12.1586 10.7078C11.5899 10.5182 10.8046 10.4167 9.9987 10.4167C9.19282 10.4167 8.40751 10.5182 7.83879 10.7078C7.55289 10.8031 7.34846 10.9119 7.22299 11.0195ZM13.6169 12.0833C13.6929 11.8576 13.7487 11.5794 13.7487 11.25C13.7487 10.8854 13.5613 10.5964 13.3167 10.3868C13.0776 10.1818 12.7612 10.0302 12.4221 9.91721C11.7408 9.69011 10.8595 9.58333 9.9987 9.58333C9.13791 9.58333 8.25656 9.69011 7.57527 9.91721C7.23617 10.0302 6.91976 10.1818 6.68066 10.3868C6.43605 10.5964 6.2487 10.8854 6.2487 11.25C6.2487 11.5794 6.30445 11.8576 6.3805 12.0833H5.41536C4.26477 12.0833 3.33203 13.0161 3.33203 14.1667V16.25C3.33203 16.4801 3.51858 16.6667 3.7487 16.6667C3.97882 16.6667 4.16536 16.4801 4.16536 16.25V14.1667C4.16536 13.4763 4.72501 12.9167 5.41536 12.9167H14.582C15.2724 12.9167 15.832 13.4763 15.832 14.1667V16.25C15.832 16.4801 16.0186 16.6667 16.2487 16.6667C16.4788 16.6667 16.6654 16.4801 16.6654 16.25V14.1667C16.6654 13.0161 15.7326 12.0833 14.582 12.0833H13.6169Z" fill="#8F97A3"/>
</svg>
