<svg width="20" height="20" viewBox="0 0 20 20" fill="none" xmlns="http://www.w3.org/2000/svg">
<path fill-rule="evenodd" clip-rule="evenodd" d="M9.9987 3.33331C10.2288 3.33331 10.4154 3.51986 10.4154 3.74998V5.83331C10.4154 6.06343 10.2288 6.24998 9.9987 6.24998C9.76858 6.24998 9.58203 6.06343 9.58203 5.83331V3.74998C9.58203 3.51986 9.76858 3.33331 9.9987 3.33331ZM8.7487 4.16665C8.97882 4.16665 9.16536 4.35319 9.16536 4.58331V5.83331C9.16536 6.06343 8.97882 6.24998 8.7487 6.24998C8.51858 6.24998 8.33203 6.06343 8.33203 5.83331V4.58331C8.33203 4.35319 8.51858 4.16665 8.7487 4.16665ZM11.2487 4.16665C11.4788 4.16665 11.6654 4.35319 11.6654 4.58331V5.83331C11.6654 6.06343 11.4788 6.24998 11.2487 6.24998C11.0186 6.24998 10.832 6.06343 10.832 5.83331V4.58331C10.832 4.35319 11.0186 4.16665 11.2487 4.16665ZM8.7487 7.49998C8.05834 7.49998 7.4987 8.05962 7.4987 8.74998V11.25C7.4987 11.9403 8.05834 12.5 8.7487 12.5H11.2487C11.9391 12.5 12.4987 11.9403 12.4987 11.25V8.74998C12.4987 8.05962 11.9391 7.49998 11.2487 7.49998H8.7487ZM6.66536 8.74998C6.66536 7.59939 7.5981 6.66665 8.7487 6.66665H11.2487C12.3993 6.66665 13.332 7.59939 13.332 8.74998V11.25C13.332 12.4006 12.3993 13.3333 11.2487 13.3333H8.7487C7.5981 13.3333 6.66536 12.4006 6.66536 11.25V8.74998ZM9.9987 8.33331C10.2288 8.33331 10.4154 8.51986 10.4154 8.74998V9.58331H11.2487C11.4788 9.58331 11.6654 9.76986 11.6654 9.99998C11.6654 10.2301 11.4788 10.4166 11.2487 10.4166H10.4154V11.25C10.4154 11.4801 10.2288 11.6666 9.9987 11.6666C9.76858 11.6666 9.58203 11.4801 9.58203 11.25V10.4166H8.7487C8.51858 10.4166 8.33203 10.2301 8.33203 9.99998C8.33203 9.76986 8.51858 9.58331 8.7487 9.58331H9.58203V8.74998C9.58203 8.51986 9.76858 8.33331 9.9987 8.33331ZM4.16536 8.74998C4.16536 8.51986 4.35191 8.33331 4.58203 8.33331H5.83203C6.06215 8.33331 6.2487 8.51986 6.2487 8.74998C6.2487 8.9801 6.06215 9.16665 5.83203 9.16665H4.58203C4.35191 9.16665 4.16536 8.9801 4.16536 8.74998ZM13.7487 8.74998C13.7487 8.51986 13.9352 8.33331 14.1654 8.33331H15.4154C15.6455 8.33331 15.832 8.51986 15.832 8.74998C15.832 8.9801 15.6455 9.16665 15.4154 9.16665H14.1654C13.9352 9.16665 13.7487 8.9801 13.7487 8.74998ZM3.33203 9.99998C3.33203 9.76986 3.51858 9.58331 3.7487 9.58331H5.83203C6.06215 9.58331 6.2487 9.76986 6.2487 9.99998C6.2487 10.2301 6.06215 10.4166 5.83203 10.4166H3.7487C3.51858 10.4166 3.33203 10.2301 3.33203 9.99998ZM13.7487 9.99998C13.7487 9.76986 13.9352 9.58331 14.1654 9.58331H16.2487C16.4788 9.58331 16.6654 9.76986 16.6654 9.99998C16.6654 10.2301 16.4788 10.4166 16.2487 10.4166H14.1654C13.9352 10.4166 13.7487 10.2301 13.7487 9.99998ZM4.16536 11.25C4.16536 11.0199 4.35191 10.8333 4.58203 10.8333H5.83203C6.06215 10.8333 6.2487 11.0199 6.2487 11.25C6.2487 11.4801 6.06215 11.6666 5.83203 11.6666H4.58203C4.35191 11.6666 4.16536 11.4801 4.16536 11.25ZM13.7487 11.25C13.7487 11.0199 13.9352 10.8333 14.1654 10.8333H15.4154C15.6455 10.8333 15.832 11.0199 15.832 11.25C15.832 11.4801 15.6455 11.6666 15.4154 11.6666H14.1654C13.9352 11.6666 13.7487 11.4801 13.7487 11.25ZM8.7487 13.75C8.97882 13.75 9.16536 13.9365 9.16536 14.1666V15.4166C9.16536 15.6468 8.97882 15.8333 8.7487 15.8333C8.51858 15.8333 8.33203 15.6468 8.33203 15.4166V14.1666C8.33203 13.9365 8.51858 13.75 8.7487 13.75ZM9.9987 13.75C10.2288 13.75 10.4154 13.9365 10.4154 14.1666V16.25C10.4154 16.4801 10.2288 16.6666 9.9987 16.6666C9.76858 16.6666 9.58203 16.4801 9.58203 16.25V14.1666C9.58203 13.9365 9.76858 13.75 9.9987 13.75ZM11.2487 13.75C11.4788 13.75 11.6654 13.9365 11.6654 14.1666V15.4166C11.6654 15.6468 11.4788 15.8333 11.2487 15.8333C11.0186 15.8333 10.832 15.6468 10.832 15.4166V14.1666C10.832 13.9365 11.0186 13.75 11.2487 13.75Z" fill="#8F97A3"/>
</svg>
