<svg width="20" height="20" viewBox="0 0 20 20" fill="none" xmlns="http://www.w3.org/2000/svg">
<path fill-rule="evenodd" clip-rule="evenodd" d="M3.33203 5.41667C3.33203 4.26608 4.26477 3.33334 5.41536 3.33334H7.08203C8.23262 3.33334 9.16536 4.26608 9.16536 5.41667V7.91667C9.16536 9.06726 8.23262 10 7.08203 10H5.41536C4.26477 10 3.33203 9.06726 3.33203 7.91667V5.41667ZM5.41536 4.16667C4.72501 4.16667 4.16536 4.72631 4.16536 5.41667V7.91667C4.16536 8.60702 4.72501 9.16667 5.41536 9.16667H7.08203C7.77239 9.16667 8.33203 8.60702 8.33203 7.91667V5.41667C8.33203 4.72631 7.77239 4.16667 7.08203 4.16667H5.41536ZM10.832 5.41667C10.832 4.26608 11.7648 3.33334 12.9154 3.33334H14.582C15.7326 3.33334 16.6654 4.26608 16.6654 5.41667C16.6654 6.56726 15.7326 7.5 14.582 7.5H12.9154C11.7648 7.5 10.832 6.56726 10.832 5.41667ZM12.9154 4.16667C12.225 4.16667 11.6654 4.72631 11.6654 5.41667C11.6654 6.10702 12.225 6.66667 12.9154 6.66667H14.582C15.2724 6.66667 15.832 6.10702 15.832 5.41667C15.832 4.72631 15.2724 4.16667 14.582 4.16667H12.9154ZM10.832 11.25C10.832 10.0994 11.7648 9.16667 12.9154 9.16667H14.582C15.7326 9.16667 16.6654 10.0994 16.6654 11.25V14.5833C16.6654 15.7339 15.7326 16.6667 14.582 16.6667H12.9154C11.7648 16.6667 10.832 15.7339 10.832 14.5833V11.25ZM12.9154 10C12.225 10 11.6654 10.5596 11.6654 11.25V14.5833C11.6654 15.2737 12.225 15.8333 12.9154 15.8333H14.582C15.2724 15.8333 15.832 15.2737 15.832 14.5833V11.25C15.832 10.5596 15.2724 10 14.582 10H12.9154ZM3.33203 13.75C3.33203 12.5994 4.26477 11.6667 5.41536 11.6667H7.08203C8.23262 11.6667 9.16536 12.5994 9.16536 13.75V14.5833C9.16536 15.7339 8.23262 16.6667 7.08203 16.6667H5.41536C4.26477 16.6667 3.33203 15.7339 3.33203 14.5833V13.75ZM5.41536 12.5C4.72501 12.5 4.16536 13.0596 4.16536 13.75V14.5833C4.16536 15.2737 4.72501 15.8333 5.41536 15.8333H7.08203C7.77239 15.8333 8.33203 15.2737 8.33203 14.5833V13.75C8.33203 13.0596 7.77239 12.5 7.08203 12.5H5.41536Z" fill="#8F97A3"/>
</svg>
