<svg width="20" height="20" viewBox="0 0 20 20" fill="none" xmlns="http://www.w3.org/2000/svg">
<path fill-rule="evenodd" clip-rule="evenodd" d="M3.33203 5.41666C3.33203 4.26607 4.26477 3.33333 5.41536 3.33333H7.08203C8.23262 3.33333 9.16536 4.26607 9.16536 5.41666V7.08333C9.16536 8.23392 8.23262 9.16666 7.08203 9.16666H5.41536C4.26477 9.16666 3.33203 8.23392 3.33203 7.08333V5.41666ZM10.832 5.41666C10.832 4.26607 11.7648 3.33333 12.9154 3.33333H14.582C15.7326 3.33333 16.6654 4.26607 16.6654 5.41666V7.08333C16.6654 8.23392 15.7326 9.16666 14.582 9.16666H12.9154C11.7648 9.16666 10.832 8.23392 10.832 7.08333V5.41666ZM12.9154 4.16666C12.225 4.16666 11.6654 4.72631 11.6654 5.41666V7.08333C11.6654 7.77368 12.225 8.33333 12.9154 8.33333H14.582C15.2724 8.33333 15.832 7.77368 15.832 7.08333V5.41666C15.832 4.72631 15.2724 4.16666 14.582 4.16666H12.9154ZM3.33203 12.9167C3.33203 11.7661 4.26477 10.8333 5.41536 10.8333H7.08203C8.23262 10.8333 9.16536 11.7661 9.16536 12.9167V14.5833C9.16536 15.7339 8.23262 16.6667 7.08203 16.6667H5.41536C4.26477 16.6667 3.33203 15.7339 3.33203 14.5833V12.9167ZM5.41536 11.6667C4.72501 11.6667 4.16536 12.2263 4.16536 12.9167V14.5833C4.16536 15.2737 4.72501 15.8333 5.41536 15.8333H7.08203C7.77239 15.8333 8.33203 15.2737 8.33203 14.5833V12.9167C8.33203 12.2263 7.77239 11.6667 7.08203 11.6667H5.41536ZM10.832 12.9167C10.832 11.7661 11.7648 10.8333 12.9154 10.8333H14.582C15.7326 10.8333 16.6654 11.7661 16.6654 12.9167V14.5833C16.6654 15.7339 15.7326 16.6667 14.582 16.6667H12.9154C11.7648 16.6667 10.832 15.7339 10.832 14.5833V12.9167Z" fill="#8F97A3"/>
</svg>
