<svg width="20" height="20" viewBox="0 0 20 20" fill="none" xmlns="http://www.w3.org/2000/svg">
<path fill-rule="evenodd" clip-rule="evenodd" d="M8.89808 3.88944C9.44449 3.14794 10.5529 3.14794 11.0993 3.88944L11.8519 4.91066C11.9522 5.04684 12.1197 5.11623 12.287 5.0909L13.5412 4.90092C14.4519 4.76297 15.2357 5.54674 15.0978 6.45743L14.9078 7.71168C14.8824 7.87893 14.9518 8.04646 15.088 8.14681L16.1092 8.89936C16.8507 9.44577 16.8507 10.5542 16.1092 11.1006L15.088 11.8532C14.9518 11.9535 14.8824 12.121 14.9078 12.2883L15.0978 13.5425C15.2357 14.4532 14.4519 15.237 13.5412 15.099L12.287 14.9091C12.1197 14.8837 11.9522 14.9531 11.8519 15.0893L11.0993 16.1105C10.5529 16.852 9.44449 16.852 8.89808 16.1105L8.14552 15.0893C8.04517 14.9531 7.87765 14.8837 7.7104 14.9091L6.45615 15.099C5.54546 15.237 4.76169 14.4532 4.89963 13.5425L5.08962 12.2883C5.11495 12.121 5.04556 11.9535 4.90938 11.8532L3.88816 11.1006C3.14666 10.5542 3.14666 9.44577 3.88816 8.89936L4.90938 8.14681C5.04556 8.04646 5.11495 7.87893 5.08962 7.71168L4.89963 6.45743C4.76169 5.54674 5.54546 4.76297 6.45615 4.90092L7.7104 5.0909C7.87765 5.11623 8.04517 5.04684 8.14552 4.91066L8.89808 3.88944ZM10.3656 4.43014C10.1834 4.18298 9.81396 4.18298 9.63182 4.43014L8.87927 5.45137C8.57822 5.8599 8.07565 6.06807 7.5739 5.99207L6.31965 5.80209C6.01608 5.75611 5.75483 6.01736 5.80081 6.32093L5.99079 7.57518C6.06679 8.07693 5.85862 8.5795 5.45009 8.88056L4.42886 9.63311C4.18169 9.81524 4.18169 10.1847 4.42886 10.3669L5.45009 11.1194C5.85862 11.4205 6.06679 11.923 5.99079 12.4248L5.80081 13.679C5.75483 13.9826 6.01608 14.2438 6.31965 14.1979L7.5739 14.0079C8.07565 13.9319 8.57822 14.1401 8.87927 14.5486L9.63182 15.5698C9.81396 15.817 10.1834 15.817 10.3656 15.5698L11.1181 14.5486C11.4192 14.1401 11.9217 13.9319 12.4235 14.0079L13.6777 14.1979C13.9813 14.2438 14.2426 13.9826 14.1966 13.679L14.0066 12.4248C13.9306 11.923 14.1388 11.4205 14.5473 11.1194L15.5685 10.3669C15.8157 10.1847 15.8157 9.81524 15.5685 9.6331L14.5473 8.88056C14.1388 8.5795 13.9306 8.07693 14.0066 7.57518L14.1966 6.32093C14.2426 6.01736 13.9813 5.75611 13.6777 5.80209L12.4235 5.99207C11.9217 6.06807 11.4192 5.8599 11.1181 5.45137L10.3656 4.43014Z" fill="#8F97A3"/>
<path fill-rule="evenodd" clip-rule="evenodd" d="M9.9987 8.33331C9.07822 8.33331 8.33203 9.0795 8.33203 9.99998C8.33203 10.9205 9.07822 11.6666 9.9987 11.6666C10.9192 11.6666 11.6654 10.9205 11.6654 9.99998C11.6654 9.0795 10.9192 8.33331 9.9987 8.33331ZM7.4987 9.99998C7.4987 8.61927 8.61799 7.49998 9.9987 7.49998C11.3794 7.49998 12.4987 8.61927 12.4987 9.99998C12.4987 11.3807 11.3794 12.5 9.9987 12.5C8.61799 12.5 7.4987 11.3807 7.4987 9.99998Z" fill="#8F97A3"/>
</svg>
