<svg width="20" height="20" viewBox="0 0 20 20" fill="none" xmlns="http://www.w3.org/2000/svg">
<path fill-rule="evenodd" clip-rule="evenodd" d="M3.33203 4.58334C3.33203 3.89299 3.89168 3.33334 4.58203 3.33334H5.41536C6.10572 3.33334 6.66536 3.89299 6.66536 4.58334V5.41668C6.66536 6.10703 6.10572 6.66668 5.41536 6.66668H4.58203C3.89168 6.66668 3.33203 6.10703 3.33203 5.41668V4.58334ZM8.33203 4.58334C8.33203 3.89299 8.89167 3.33334 9.58203 3.33334H10.4154C11.1057 3.33334 11.6654 3.89299 11.6654 4.58334V5.41668C11.6654 6.10703 11.1057 6.66668 10.4154 6.66668H9.58203C8.89167 6.66668 8.33203 6.10703 8.33203 5.41668V4.58334ZM9.58203 4.16668C9.35191 4.16668 9.16536 4.35322 9.16536 4.58334V5.41668C9.16536 5.6468 9.35191 5.83334 9.58203 5.83334H10.4154C10.6455 5.83334 10.832 5.6468 10.832 5.41668V4.58334C10.832 4.35322 10.6455 4.16668 10.4154 4.16668H9.58203ZM13.332 4.58334C13.332 3.89299 13.8917 3.33334 14.582 3.33334H15.4154C16.1057 3.33334 16.6654 3.89299 16.6654 4.58334V5.41668C16.6654 6.10703 16.1057 6.66668 15.4154 6.66668H14.582C13.8917 6.66668 13.332 6.10703 13.332 5.41668V4.58334ZM3.33203 9.58334C3.33203 8.89299 3.89168 8.33334 4.58203 8.33334H5.41536C6.10572 8.33334 6.66536 8.89299 6.66536 9.58334V10.4167C6.66536 11.107 6.10572 11.6667 5.41536 11.6667H4.58203C3.89168 11.6667 3.33203 11.107 3.33203 10.4167V9.58334ZM4.58203 9.16668C4.35191 9.16668 4.16536 9.35322 4.16536 9.58334V10.4167C4.16536 10.6468 4.35191 10.8333 4.58203 10.8333H5.41536C5.64548 10.8333 5.83203 10.6468 5.83203 10.4167V9.58334C5.83203 9.35322 5.64548 9.16668 5.41536 9.16668H4.58203ZM8.33203 9.58334C8.33203 8.89299 8.89167 8.33334 9.58203 8.33334H10.4154C11.1057 8.33334 11.6654 8.89299 11.6654 9.58334V10.4167C11.6654 11.107 11.1057 11.6667 10.4154 11.6667H9.58203C8.89167 11.6667 8.33203 11.107 8.33203 10.4167V9.58334ZM13.332 9.58334C13.332 8.89299 13.8917 8.33334 14.582 8.33334H15.4154C16.1057 8.33334 16.6654 8.89299 16.6654 9.58334V10.4167C16.6654 11.107 16.1057 11.6667 15.4154 11.6667H14.582C13.8917 11.6667 13.332 11.107 13.332 10.4167V9.58334ZM14.582 9.16668C14.3519 9.16668 14.1654 9.35322 14.1654 9.58334V10.4167C14.1654 10.6468 14.3519 10.8333 14.582 10.8333H15.4154C15.6455 10.8333 15.832 10.6468 15.832 10.4167V9.58334C15.832 9.35322 15.6455 9.16668 15.4154 9.16668H14.582ZM3.33203 14.5833C3.33203 13.893 3.89168 13.3333 4.58203 13.3333H5.41536C6.10572 13.3333 6.66536 13.893 6.66536 14.5833V15.4167C6.66536 16.107 6.10572 16.6667 5.41536 16.6667H4.58203C3.89168 16.6667 3.33203 16.107 3.33203 15.4167V14.5833ZM8.33203 14.5833C8.33203 13.893 8.89167 13.3333 9.58203 13.3333H10.4154C11.1057 13.3333 11.6654 13.893 11.6654 14.5833V15.4167C11.6654 16.107 11.1057 16.6667 10.4154 16.6667H9.58203C8.89167 16.6667 8.33203 16.107 8.33203 15.4167V14.5833ZM9.58203 14.1667C9.35191 14.1667 9.16536 14.3532 9.16536 14.5833V15.4167C9.16536 15.6468 9.35191 15.8333 9.58203 15.8333H10.4154C10.6455 15.8333 10.832 15.6468 10.832 15.4167V14.5833C10.832 14.3532 10.6455 14.1667 10.4154 14.1667H9.58203ZM13.332 14.5833C13.332 13.893 13.8917 13.3333 14.582 13.3333H15.4154C16.1057 13.3333 16.6654 13.893 16.6654 14.5833V15.4167C16.6654 16.107 16.1057 16.6667 15.4154 16.6667H14.582C13.8917 16.6667 13.332 16.107 13.332 15.4167V14.5833Z" fill="#8F97A3"/>
</svg>
