<svg width="24" height="24" viewBox="0 0 24 24" fill="none" xmlns="http://www.w3.org/2000/svg">
<path fill-rule="evenodd" clip-rule="evenodd" d="M12 4C12.2761 4 12.5 4.22386 12.5 4.5V7C12.5 7.27614 12.2761 7.5 12 7.5C11.7239 7.5 11.5 7.27614 11.5 7V4.5C11.5 4.22386 11.7239 4 12 4ZM6.34314 6.34313C6.53841 6.14787 6.85499 6.14787 7.05025 6.34313L8.81802 8.1109C9.01328 8.30616 9.01328 8.62274 8.81802 8.818C8.62276 9.01326 8.30617 9.01326 8.11091 8.818L6.34314 7.05024C6.14788 6.85497 6.14788 6.53839 6.34314 6.34313ZM17.6569 6.34316C17.8521 6.53842 17.8521 6.85501 17.6569 7.05027L15.8891 8.81804C15.6938 9.0133 15.3772 9.0133 15.182 8.81804C14.9867 8.62277 14.9867 8.30619 15.182 8.11093L16.9497 6.34316C17.145 6.1479 17.4616 6.1479 17.6569 6.34316ZM12 9C10.3431 9 9 10.3431 9 12C9 13.6569 10.3431 15 12 15C13.6569 15 15 13.6569 15 12C15 10.3431 13.6569 9 12 9ZM8 12C8 9.79086 9.79086 8 12 8C14.2091 8 16 9.79086 16 12C16 14.2091 14.2091 16 12 16C9.79086 16 8 14.2091 8 12ZM4 12C4 11.7239 4.22386 11.5 4.5 11.5H7C7.27614 11.5 7.5 11.7239 7.5 12C7.5 12.2761 7.27614 12.5 7 12.5H4.5C4.22386 12.5 4 12.2761 4 12ZM16.5 12C16.5 11.7239 16.7239 11.5 17 11.5H19.5C19.7761 11.5 20 11.7239 20 12C20 12.2761 19.7761 12.5 19.5 12.5H17C16.7239 12.5 16.5 12.2761 16.5 12ZM15.182 15.182C15.3772 14.9867 15.6938 14.9867 15.8891 15.182L17.6569 16.9497C17.8521 17.145 17.8521 17.4616 17.6569 17.6568C17.4616 17.8521 17.145 17.8521 16.9497 17.6568L15.182 15.8891C14.9867 15.6938 14.9867 15.3772 15.182 15.182ZM8.81802 15.182C9.01328 15.3773 9.01328 15.6938 8.81802 15.8891L7.05025 17.6569C6.85499 17.8521 6.53841 17.8521 6.34314 17.6569C6.14788 17.4616 6.14788 17.145 6.34314 16.9498L8.11091 15.182C8.30617 14.9867 8.62276 14.9867 8.81802 15.182ZM12 16.5C12.2761 16.5 12.5 16.7239 12.5 17V19.5C12.5 19.7761 12.2761 20 12 20C11.7239 20 11.5 19.7761 11.5 19.5V17C11.5 16.7239 11.7239 16.5 12 16.5Z" fill="#8F97A3"/>
</svg>
