<svg width="24" height="24" viewBox="0 0 24 24" fill="none" xmlns="http://www.w3.org/2000/svg">
<path fill-rule="evenodd" clip-rule="evenodd" d="M4 5.5C4 5.22386 4.22386 5 4.5 5H19.5C19.7761 5 20 5.22386 20 5.5C20 5.77614 19.7761 6 19.5 6H4.5C4.22386 6 4 5.77614 4 5.5ZM8.35355 8.14645C8.54882 8.34171 8.54882 8.65829 8.35355 8.85355L5.20711 12L8.35355 15.1464C8.54882 15.3417 8.54882 15.6583 8.35355 15.8536C8.15829 16.0488 7.84171 16.0488 7.64645 15.8536L4.14645 12.3536C3.95118 12.1583 3.95118 11.8417 4.14645 11.6464L7.64645 8.14645C7.84171 7.95118 8.15829 7.95118 8.35355 8.14645ZM8 12C8 11.7239 8.22386 11.5 8.5 11.5H19.5C19.7761 11.5 20 11.7239 20 12C20 12.2761 19.7761 12.5 19.5 12.5H8.5C8.22386 12.5 8 12.2761 8 12ZM4 18.5C4 18.2239 4.22386 18 4.5 18H19.5C19.7761 18 20 18.2239 20 18.5C20 18.7761 19.7761 19 19.5 19H4.5C4.22386 19 4 18.7761 4 18.5Z" fill="#8F97A3"/>
</svg>
