<svg width="24" height="24" viewBox="0 0 24 24" fill="none" xmlns="http://www.w3.org/2000/svg">
<path fill-rule="evenodd" clip-rule="evenodd" d="M5 4.5C5 4.22386 5.22386 4 5.5 4H8.5L8.50109 4L8.50242 4.00001L8.50578 4.00003L8.51523 4.00014L8.54473 4.00089C8.56894 4.00169 8.60213 4.00323 8.64305 4.00615C8.7247 4.01199 8.83808 4.02341 8.97282 4.04587C9.23995 4.09039 9.60375 4.18036 9.97361 4.36529C10.3454 4.55119 10.7324 4.83791 11.0254 5.27734C11.3204 5.7199 11.5 6.28751 11.5 7C11.5 7.71249 11.3204 8.2801 11.0254 8.72266C10.7324 9.16209 10.3454 9.44881 9.97361 9.63471C9.60375 9.81964 9.23995 9.90961 8.97282 9.95413C8.83808 9.97659 8.7247 9.98801 8.64305 9.99385C8.60213 9.99677 8.56894 9.99831 8.54473 9.99911L8.51523 9.99986L8.50578 9.99997L8.50242 9.99999L8.50109 10L8.5 10H6V13.5C6 13.7761 5.77614 14 5.5 14C5.22386 14 5 13.7761 5 13.5V4.5ZM6 5V9H8.49834L8.51142 8.99967C8.52383 8.99925 8.54435 8.99835 8.5718 8.99639C8.62686 8.99245 8.7088 8.98435 8.80843 8.96774C9.01005 8.93414 9.27125 8.86786 9.52639 8.74029C9.77958 8.61369 10.0176 8.43166 10.1933 8.16796C10.3671 7.9074 10.5 7.53751 10.5 7C10.5 6.46249 10.3671 6.0926 10.1933 5.83204C10.0176 5.56834 9.77958 5.38631 9.52639 5.25971C9.27125 5.13214 9.01005 5.06586 8.80843 5.03226C8.7088 5.01565 8.62686 5.00755 8.5718 5.00361C8.54435 5.00165 8.52383 5.00075 8.51142 5.00033L8.49911 5.00001M4 19.5C4 19.2239 4.22386 19 4.5 19H19.5C19.7761 19 20 19.2239 20 19.5C20 19.7761 19.7761 20 19.5 20H4.5C4.22386 20 4 19.7761 4 19.5Z" fill="#8F97A3"/>
<path d="M18.9797 6.64108C19.0576 6.37616 18.906 6.09824 18.6411 6.02032C18.3762 5.9424 18.0982 6.094 18.0203 6.35892L16.4206 11.7979L13.4402 6.26295C13.3093 6.01981 13.0061 5.92885 12.7629 6.05976C12.5198 6.19068 12.4288 6.49391 12.5598 6.73705L16.0194 13.1621L15.5237 14.8476L15.523 14.8493C15.5203 14.857 15.5157 14.8696 15.5093 14.8865C15.4965 14.9202 15.4765 14.9703 15.4493 15.0313C15.3945 15.1547 15.3138 15.3155 15.209 15.4726C14.9791 15.8174 14.7346 16 14.5 16C14.2125 16 14.0301 15.9296 13.9102 15.8496C13.7871 15.7676 13.6988 15.6546 13.6347 15.5264C13.5696 15.3963 13.5346 15.2601 13.5166 15.1522C13.5078 15.0994 13.5036 15.0566 13.5017 15.0288C13.5007 15.0151 13.5003 15.0053 13.5001 15.0002L13.5 14.9965C13.4981 14.722 13.275 14.5 13 14.5C12.7239 14.5 12.5 14.7239 12.5 15L12.5 15.001L12.5 15.0022L12.5 15.0051L12.5001 15.0124L12.5006 15.0335C12.5012 15.0504 12.5023 15.0728 12.5042 15.1001C12.5081 15.1544 12.5156 15.2287 12.5302 15.3166C12.5591 15.4899 12.6179 15.7287 12.7403 15.9736C12.8637 16.2204 13.0567 16.4824 13.3555 16.6817C13.6574 16.8829 14.0375 17 14.5 17C15.2654 17 15.7709 16.4326 16.041 16.0274C16.1862 15.8095 16.293 15.5953 16.3632 15.4374C16.3985 15.3578 16.4254 15.2908 16.4438 15.2425C16.453 15.2183 16.4602 15.1986 16.4652 15.1844L16.4713 15.167L16.4732 15.1615L16.4739 15.1595L16.4743 15.1581C16.4762 15.1525 16.478 15.1468 16.4797 15.1411L18.9797 6.64108Z" fill="#8F97A3"/>
</svg>
