<svg width="20" height="20" viewBox="0 0 20 20" fill="none" xmlns="http://www.w3.org/2000/svg">
<path fill-rule="evenodd" clip-rule="evenodd" d="M5 5.41668C5 4.26608 5.93274 3.33334 7.08333 3.33334H12.9167C14.0673 3.33334 15 4.26608 15 5.41668V14.5833C15 15.7339 14.0673 16.6667 12.9167 16.6667H7.08333C5.93274 16.6667 5 15.7339 5 14.5833V5.41668ZM7.08333 4.16668C6.39298 4.16668 5.83333 4.72632 5.83333 5.41668V14.5833C5.83333 15.2737 6.39298 15.8333 7.08333 15.8333H12.9167C13.607 15.8333 14.1667 15.2737 14.1667 14.5833V5.41668C14.1667 4.72632 13.607 4.16668 12.9167 4.16668H7.08333ZM10 5.00001C10.2301 5.00001 10.4167 5.18656 10.4167 5.41668V6.27168C11.3348 6.37145 11.8771 6.80041 12.1762 7.2791C12.339 7.53952 12.419 7.79711 12.4587 7.98784C12.4787 8.08388 12.489 8.16517 12.4943 8.22456C12.4969 8.25433 12.4984 8.27882 12.4991 8.29716C12.4995 8.30634 12.4997 8.31401 12.4999 8.32005L12.5 8.32788L12.5 8.33087L12.5 8.33323C12.5 8.56334 12.3135 8.74989 12.0833 8.74989C11.8543 8.74989 11.6685 8.56518 11.6667 8.33662L11.6665 8.33186C11.6663 8.32579 11.6657 8.31447 11.6642 8.29867C11.6614 8.26692 11.6554 8.21801 11.6429 8.15781C11.6175 8.03606 11.5672 7.877 11.4696 7.72078C11.3209 7.48284 11.0317 7.20003 10.4167 7.11128V9.60501C11.3348 9.70478 11.8771 10.1337 12.1762 10.6124C12.339 10.8729 12.419 11.1304 12.4587 11.3212C12.4787 11.4172 12.489 11.4985 12.4943 11.5579C12.4969 11.5877 12.4984 11.6122 12.4991 11.6305C12.4995 11.6397 12.4997 11.6473 12.4999 11.6534L12.5 11.6612L12.5 11.6642L12.5 11.6655L12.5 11.6667L12.5 11.6689L12.5 11.6719L12.4999 11.6797C12.4997 11.6858 12.4995 11.6934 12.4991 11.7026C12.4984 11.721 12.4969 11.7455 12.4943 11.7752C12.489 11.8346 12.4787 11.9159 12.4587 12.012C12.419 12.2027 12.339 12.4603 12.1763 12.7208C11.8771 13.1995 11.3348 13.6285 10.4167 13.7281V14.5833C10.4167 14.8135 10.2301 15 10 15C9.76988 15 9.58333 14.8135 9.58333 14.5833V13.7281C8.66524 13.6283 8.12294 13.1994 7.82375 12.7207C7.66098 12.4603 7.58105 12.2027 7.54131 12.0119C7.5213 11.9159 7.51102 11.8346 7.50572 11.7752C7.50306 11.7455 7.50163 11.721 7.50087 11.7026C7.50049 11.6934 7.50027 11.6858 7.50015 11.6797L7.50003 11.6719L7.50001 11.6689L7.5 11.6677L7.5 11.6666C7.5 11.4364 7.68655 11.2499 7.91667 11.2499C8.14565 11.2499 8.3315 11.4346 8.33332 11.6632L8.33348 11.6679C8.33373 11.674 8.33434 11.6853 8.33575 11.7011C8.33859 11.7329 8.34458 11.7818 8.35713 11.842C8.38249 11.9637 8.43277 12.1228 8.53041 12.279C8.67913 12.5169 8.96832 12.7998 9.58333 12.8885M10.4167 10.4446V12.8886C11.0317 12.7999 11.3209 12.5171 11.4696 12.2791C11.5672 12.1229 11.6175 11.9638 11.6429 11.842C11.6554 11.7818 11.6614 11.7329 11.6642 11.7011C11.6657 11.6853 11.6663 11.674 11.6665 11.6679L11.6666 11.6666L11.6665 11.6652C11.6663 11.6591 11.6657 11.6478 11.6642 11.632C11.6614 11.6003 11.6554 11.5513 11.6429 11.4911C11.6175 11.3694 11.5672 11.2103 11.4696 11.0541C11.3209 10.8162 11.0317 10.5334 10.4167 10.4446ZM9.58333 10.3948C8.66524 10.295 8.12294 9.86604 7.82375 9.38735C7.66098 9.12693 7.58105 8.86934 7.54131 8.67861C7.5213 8.58257 7.51102 8.50128 7.50572 8.44189C7.50306 8.41212 7.50163 8.38763 7.50087 8.36929C7.50049 8.36011 7.50027 8.35245 7.50015 8.34641L7.50003 8.33857L7.50001 8.33558L7.5 8.33432L7.5 8.33334L7.50001 8.33087L7.50003 8.32788L7.50015 8.32005C7.50027 8.31401 7.50049 8.30634 7.50087 8.29716C7.50163 8.27882 7.50306 8.25433 7.50572 8.22455C7.51102 8.16516 7.5213 8.08386 7.54131 7.98782C7.58104 7.79708 7.66098 7.53946 7.82375 7.27902C8.12294 6.8003 8.66524 6.37133 9.58333 6.27164V5.41668C9.58333 5.18656 9.76988 5.00001 10 5.00001M9.58333 7.11123C8.96831 7.19991 8.67913 7.48273 8.53042 7.72068C8.43277 7.87692 8.3825 8.03599 8.35713 8.15777C8.34458 8.21798 8.33859 8.2669 8.33575 8.29866C8.33434 8.31446 8.33373 8.32578 8.33348 8.33185L8.33343 8.33322L8.33348 8.3346C8.33373 8.34066 8.33434 8.35198 8.33575 8.36778C8.33859 8.39953 8.34458 8.44844 8.35713 8.50864C8.38249 8.6304 8.43277 8.78945 8.53041 8.94568C8.67913 9.18361 8.96832 9.46642 9.58333 9.55517V7.11123Z" fill="#8F97A3"/>
<path fill-rule="evenodd" clip-rule="evenodd" d="M10.4167 5.41668C10.4167 5.18656 10.2301 5.00001 10 5.00001C9.76988 5.00001 9.58333 5.18656 9.58333 5.41668V6.27164C8.66524 6.37133 8.12294 6.8003 7.82375 7.27902C7.66098 7.53946 7.58104 7.79708 7.54131 7.98782C7.5213 8.08386 7.51102 8.16516 7.50572 8.22455C7.50306 8.25433 7.50163 8.27882 7.50087 8.29716C7.50049 8.30634 7.50027 8.31401 7.50015 8.32005L7.50003 8.32788L7.50001 8.33087L7.5 8.33334L7.5 8.33432L7.50001 8.33558L7.50003 8.33857L7.50015 8.34641C7.50027 8.35245 7.50049 8.36011 7.50087 8.36929C7.50163 8.38763 7.50306 8.41212 7.50572 8.44189C7.51102 8.50128 7.5213 8.58257 7.54131 8.67861C7.58105 8.86934 7.66098 9.12693 7.82375 9.38735C8.12294 9.86604 8.66524 10.295 9.58333 10.3948V9.55517C8.96832 9.46642 8.67913 9.18361 8.53041 8.94568C8.43277 8.78945 8.38249 8.6304 8.35713 8.50864C8.34458 8.44844 8.33859 8.39953 8.33575 8.36778C8.33434 8.35198 8.33373 8.34066 8.33348 8.3346L8.33343 8.33322L8.33348 8.33185C8.33373 8.32578 8.33434 8.31446 8.33575 8.29866C8.33859 8.2669 8.34458 8.21798 8.35713 8.15777C8.3825 8.03599 8.43277 7.87692 8.53042 7.72068C8.67913 7.48273 8.96831 7.19991 9.58333 7.11123V9.55517V10.3948V12.8885C8.96832 12.7998 8.67913 12.5169 8.53041 12.279C8.43277 12.1228 8.38249 11.9637 8.35713 11.842C8.34458 11.7818 8.33859 11.7329 8.33575 11.7011C8.33434 11.6853 8.33373 11.674 8.33348 11.6679L8.33332 11.6632C8.3315 11.4346 8.14565 11.2499 7.91667 11.2499C7.68655 11.2499 7.5 11.4364 7.5 11.6666L7.5 11.6677L7.50001 11.6689L7.50003 11.6719L7.50015 11.6797C7.50027 11.6858 7.50049 11.6934 7.50087 11.7026C7.50163 11.721 7.50306 11.7455 7.50572 11.7752C7.51102 11.8346 7.5213 11.9159 7.54131 12.0119C7.58105 12.2027 7.66098 12.4603 7.82375 12.7207C8.12294 13.1994 8.66524 13.6283 9.58333 13.7281V14.5833C9.58333 14.8135 9.76988 15 10 15C10.2301 15 10.4167 14.8135 10.4167 14.5833V13.7281C11.3348 13.6285 11.8771 13.1995 12.1763 12.7208C12.339 12.4603 12.419 12.2027 12.4587 12.012C12.4787 11.9159 12.489 11.8346 12.4943 11.7752C12.4969 11.7455 12.4984 11.721 12.4991 11.7026C12.4995 11.6934 12.4997 11.6858 12.4999 11.6797L12.5 11.6719L12.5 11.6689L12.5 11.6667L12.5 11.6655L12.5 11.6642L12.5 11.6612L12.4999 11.6534C12.4997 11.6473 12.4995 11.6397 12.4991 11.6305C12.4984 11.6122 12.4969 11.5877 12.4943 11.5579C12.489 11.4985 12.4787 11.4172 12.4587 11.3212C12.419 11.1304 12.339 10.8729 12.1762 10.6124C11.8771 10.1337 11.3348 9.70478 10.4167 9.60501V7.11128C11.0317 7.20003 11.3209 7.48284 11.4696 7.72078C11.5672 7.877 11.6175 8.03606 11.6429 8.15781C11.6554 8.21801 11.6614 8.26692 11.6642 8.29867C11.6657 8.31447 11.6663 8.32579 11.6665 8.33186L11.6667 8.33662C11.6685 8.56518 11.8543 8.74989 12.0833 8.74989C12.3135 8.74989 12.5 8.56334 12.5 8.33323L12.5 8.33087L12.5 8.32788L12.4999 8.32005C12.4997 8.31401 12.4995 8.30634 12.4991 8.29716C12.4984 8.27882 12.4969 8.25433 12.4943 8.22456C12.489 8.16517 12.4787 8.08388 12.4587 7.98784C12.419 7.79711 12.339 7.53952 12.1762 7.2791C11.8771 6.80041 11.3348 6.37145 10.4167 6.27168V5.41668ZM10.4167 10.4446V12.8886C11.0317 12.7999 11.3209 12.5171 11.4696 12.2791C11.5672 12.1229 11.6175 11.9638 11.6429 11.842C11.6554 11.7818 11.6614 11.7329 11.6642 11.7011C11.6657 11.6853 11.6663 11.674 11.6665 11.6679L11.6666 11.6666L11.6665 11.6652C11.6663 11.6591 11.6657 11.6478 11.6642 11.632C11.6614 11.6003 11.6554 11.5513 11.6429 11.4911C11.6175 11.3694 11.5672 11.2103 11.4696 11.0541C11.3209 10.8162 11.0317 10.5334 10.4167 10.4446Z" fill="#8F97A3"/>
</svg>
