<svg width="20" height="20" viewBox="0 0 20 20" fill="none" xmlns="http://www.w3.org/2000/svg">
<path fill-rule="evenodd" clip-rule="evenodd" d="M5 5.41668C5 4.26608 5.93274 3.33334 7.08333 3.33334H12.9167C14.0673 3.33334 15 4.26608 15 5.41668V14.5833C15 15.7339 14.0673 16.6667 12.9167 16.6667H7.08333C5.93274 16.6667 5 15.7339 5 14.5833V5.41668ZM7.08333 4.16668C6.39298 4.16668 5.83333 4.72632 5.83333 5.41668V14.5833C5.83333 15.2737 6.39298 15.8333 7.08333 15.8333H12.9167C13.607 15.8333 14.1667 15.2737 14.1667 14.5833V5.41668C14.1667 4.72632 13.607 4.16668 12.9167 4.16668H7.08333ZM6.66667 6.25001C6.66667 5.55965 7.22631 5.00001 7.91667 5.00001H12.0833C12.7737 5.00001 13.3333 5.55965 13.3333 6.25001V7.50001C13.3333 8.19037 12.7737 8.75001 12.0833 8.75001H7.91667C7.22631 8.75001 6.66667 8.19037 6.66667 7.50001V6.25001ZM7.91667 5.83334C7.68655 5.83334 7.5 6.01989 7.5 6.25001V7.50001C7.5 7.73013 7.68655 7.91668 7.91667 7.91668H12.0833C12.3135 7.91668 12.5 7.73013 12.5 7.50001V6.25001C12.5 6.01989 12.3135 5.83334 12.0833 5.83334H7.91667ZM6.66667 10.8333C6.66667 10.143 7.22631 9.58334 7.91667 9.58334C8.60702 9.58334 9.16667 10.143 9.16667 10.8333C9.16667 11.5237 8.60702 12.0833 7.91667 12.0833C7.22631 12.0833 6.66667 11.5237 6.66667 10.8333ZM7.91667 10.4167C7.68655 10.4167 7.5 10.6032 7.5 10.8333C7.5 11.0635 7.68655 11.25 7.91667 11.25C8.14679 11.25 8.33333 11.0635 8.33333 10.8333C8.33333 10.6032 8.14679 10.4167 7.91667 10.4167ZM9.58333 10.8333C9.58333 10.143 10.143 9.58334 10.8333 9.58334C11.5237 9.58334 12.0833 10.143 12.0833 10.8333C12.0833 11.5237 11.5237 12.0833 10.8333 12.0833C10.143 12.0833 9.58333 11.5237 9.58333 10.8333ZM10.8333 10.4167C10.6032 10.4167 10.4167 10.6032 10.4167 10.8333C10.4167 11.0635 10.6032 11.25 10.8333 11.25C11.0635 11.25 11.25 11.0635 11.25 10.8333C11.25 10.6032 11.0635 10.4167 10.8333 10.4167ZM12.9167 9.58334C13.1468 9.58334 13.3333 9.76989 13.3333 10V14.5833C13.3333 14.8135 13.1468 15 12.9167 15C12.6865 15 12.5 14.8135 12.5 14.5833V10C12.5 9.76989 12.6865 9.58334 12.9167 9.58334ZM6.66667 13.75C6.66667 13.0597 7.22631 12.5 7.91667 12.5C8.60702 12.5 9.16667 13.0597 9.16667 13.75C9.16667 14.4404 8.60702 15 7.91667 15C7.22631 15 6.66667 14.4404 6.66667 13.75ZM7.91667 13.3333C7.68655 13.3333 7.5 13.5199 7.5 13.75C7.5 13.9801 7.68655 14.1667 7.91667 14.1667C8.14679 14.1667 8.33333 13.9801 8.33333 13.75C8.33333 13.5199 8.14679 13.3333 7.91667 13.3333ZM9.58333 13.75C9.58333 13.0597 10.143 12.5 10.8333 12.5C11.5237 12.5 12.0833 13.0597 12.0833 13.75C12.0833 14.4404 11.5237 15 10.8333 15C10.143 15 9.58333 14.4404 9.58333 13.75ZM10.8333 13.3333C10.6032 13.3333 10.4167 13.5199 10.4167 13.75C10.4167 13.9801 10.6032 14.1667 10.8333 14.1667C11.0635 14.1667 11.25 13.9801 11.25 13.75C11.25 13.5199 11.0635 13.3333 10.8333 13.3333Z" fill="#8F97A3"/>
</svg>
