<svg width="20" height="20" viewBox="0 0 20 20" fill="none" xmlns="http://www.w3.org/2000/svg">
<path fill-rule="evenodd" clip-rule="evenodd" d="M5 5.41666C5 4.26607 5.93274 3.33333 7.08333 3.33333H12.9167C14.0673 3.33333 15 4.26607 15 5.41666V14.5833C15 15.7339 14.0673 16.6667 12.9167 16.6667H7.08333C5.93274 16.6667 5 15.7339 5 14.5833V5.41666ZM7.08333 4.16666C6.39298 4.16666 5.83333 4.72631 5.83333 5.41666V14.5833C5.83333 15.2737 6.39298 15.8333 7.08333 15.8333H12.9167C13.607 15.8333 14.1667 15.2737 14.1667 14.5833V5.41666C14.1667 4.72631 13.607 4.16666 12.9167 4.16666H7.08333ZM7.08333 7.08333C7.08333 6.85321 7.26988 6.66666 7.5 6.66666H12.5C12.7301 6.66666 12.9167 6.85321 12.9167 7.08333C12.9167 7.31345 12.7301 7.49999 12.5 7.49999H7.5C7.26988 7.49999 7.08333 7.31345 7.08333 7.08333ZM7.08333 9.16666C7.08333 8.93654 7.26988 8.74999 7.5 8.74999H10.8333C11.0635 8.74999 11.25 8.93654 11.25 9.16666C11.25 9.39678 11.0635 9.58333 10.8333 9.58333H7.5C7.26988 9.58333 7.08333 9.39678 7.08333 9.16666ZM7.08333 11.25C7.08333 11.0199 7.26988 10.8333 7.5 10.8333H11.6667C11.8968 10.8333 12.0833 11.0199 12.0833 11.25C12.0833 11.4801 11.8968 11.6667 11.6667 11.6667H7.5C7.26988 11.6667 7.08333 11.4801 7.08333 11.25ZM7.08333 13.3333C7.08333 13.1032 7.26988 12.9167 7.5 12.9167H12.5C12.7301 12.9167 12.9167 13.1032 12.9167 13.3333C12.9167 13.5634 12.7301 13.75 12.5 13.75H7.5C7.26988 13.75 7.08333 13.5634 7.08333 13.3333Z" fill="#8F97A3"/>
</svg>
